<svg width="24" height="24" viewBox="0 0 24 24" fill="none" xmlns="http://www.w3.org/2000/svg">
  <path d="M14 3V7C14 7.55228 14.4477 8 15 8H19" stroke="#E24D43" stroke-width="1.8" stroke-linecap="round" stroke-linejoin="round"/>
  <path d="M5 12V5C5 3.89543 5.89543 3 7 3H14L19 8V12" stroke="#E24D43" stroke-width="1.8" stroke-linecap="round" stroke-linejoin="round"/>
  <path d="M5 18H6.5C7.32843 18 8 17.3284 8 16.5C8 15.6716 7.32843 15 6.5 15H5V21" stroke="#E24D43" stroke-width="1.8" stroke-linecap="round" stroke-linejoin="round"/>
  <path d="M11 15V21H12C13.1046 21 14 20.1046 14 19V17C14 15.8954 13.1046 15 12 15H11Z" stroke="#E24D43" stroke-width="1.8" stroke-linecap="round" stroke-linejoin="round"/>
  <path d="M17 21V15H20" stroke="#E24D43" stroke-width="1.8" stroke-linecap="round" stroke-linejoin="round"/>
  <path d="M17 18H19.5" stroke="#E24D43" stroke-width="1.8" stroke-linecap="round" stroke-linejoin="round"/>
</svg>
